<?xml version="1.0" encoding="UTF-8"?><svg
  xmlns="http://www.w3.org/2000/svg"
  xmlns:xlink="http://www.w3.org/1999/xlink"
  height="255.1"
  preserveAspectRatio="xMidYMid meet"
  version="1.0"
  viewBox="85.0 85.0 255.1 255.1"
  width="255.1"
  zoomAndPan="magnify"
>
  <g>
    <g id="change1_1">
      <circle cx="212.6" cy="212.6" fill="#ad88bd" r="127.56" />
    </g>
    <g id="change2_1">
      <circle cx="212.6" cy="158.32" fill="#fff" opacity=".25" r="38.95" />
    </g>
    <g id="change2_2">
      <circle cx="212.6" cy="158.32" fill="#fff" opacity=".25" r="50.19" />
    </g>
    <g id="change3_1">
      <circle cx="212.6" cy="158.32" fill="#fffdee" r="28.23" />
    </g>
    <g id="change2_3">
      <path
        d="M333.53,253.29c4.3-12.78,6.63-26.46,6.63-40.69c0-11.65-1.57-22.93-4.5-33.65 c-5.53,0.03-10.56,2.19-14.31,5.7c-4.11-3.05-9.2-4.86-14.71-4.86c-11.58,0-21.3,7.98-23.97,18.73 c-1.41-0.32-2.87-0.49-4.37-0.49c-10.82,0-19.61,8.63-19.9,19.39c-4.85,3.63-8.01,9.41-8.01,15.94c0,10.67,8.39,19.39,18.94,19.9 v0.03H333.53z"
        fill="#fff"
        opacity=".42"
      />
    </g>
    <g id="change4_1">
      <path
        d="M96,264.39c19.86,44.64,64.59,75.77,116.6,75.77s96.74-31.13,116.6-75.77H96z"
        fill="#844683"
      />
    </g>
    <g id="change2_4">
      <path
        d="M320.42,186.75c-0.22,0-0.44,0-0.67,0c-0.78,0-1.54,0.69-1.5,1.5c0.04,0.81,0.66,1.5,1.5,1.5 c0.22,0,0.44,0,0.67,0c0.78,0,1.54-0.69,1.5-1.5C321.88,187.44,321.26,186.75,320.42,186.75L320.42,186.75z"
        fill="#fff"
      />
    </g>
    <g id="change2_5">
      <path
        d="M323.74,167.47c-0.22,0-0.44,0-0.67,0c-0.78,0-1.54,0.69-1.5,1.5c0.04,0.81,0.66,1.5,1.5,1.5 c0.22,0,0.44,0,0.67,0c0.78,0,1.54-0.69,1.5-1.5C325.21,168.15,324.58,167.47,323.74,167.47L323.74,167.47z"
        fill="#fff"
      />
    </g>
    <g id="change2_6">
      <path
        d="M306.45,162.81c-0.22,0-0.44,0-0.67,0c-0.78,0-1.54,0.69-1.5,1.5c0.04,0.81,0.66,1.5,1.5,1.5 c0.22,0,0.44,0,0.67,0c0.78,0,1.54-0.69,1.5-1.5C307.91,163.5,307.29,162.81,306.45,162.81L306.45,162.81z"
        fill="#fff"
      />
    </g>
    <g id="change2_7">
      <path
        d="M238.61,107.95c1.93,0,1.93-3,0-3C236.68,104.95,236.68,107.95,238.61,107.95L238.61,107.95z"
        fill="#fff"
      />
    </g>
    <g id="change2_8">
      <path
        d="M268.54,106.94c-0.22,0-0.44,0-0.67,0c-0.78,0-1.54,0.69-1.5,1.5c0.04,0.81,0.66,1.5,1.5,1.5 c0.22,0,0.44,0,0.67,0c0.78,0,1.54-0.69,1.5-1.5C270.01,107.63,269.38,106.94,268.54,106.94L268.54,106.94z"
        fill="#fff"
      />
    </g>
    <g id="change2_9">
      <path
        d="M234.62,125.24c1.93,0,1.93-3,0-3C232.69,122.24,232.69,125.24,234.62,125.24L234.62,125.24z"
        fill="#fff"
      />
    </g>
    <g id="change2_10">
      <path
        d="M149.49,117.92c1.93,0,1.93-3,0-3C147.56,114.92,147.56,117.92,149.49,117.92L149.49,117.92z"
        fill="#fff"
      />
    </g>
    <g id="change2_11">
      <path
        d="M183.41,150.51c1.93,0,1.93-3,0-3C181.48,147.51,181.48,150.51,183.41,150.51L183.41,150.51z"
        fill="#fff"
      />
    </g>
    <g id="change2_12">
      <path
        d="M145.5,181.43c-0.22,0-0.44,0-0.67,0c-0.78,0-1.54,0.69-1.5,1.5c0.04,0.81,0.66,1.5,1.5,1.5 c0.22,0,0.44,0,0.67,0c0.78,0,1.54-0.69,1.5-1.5C146.96,182.12,146.34,181.43,145.5,181.43L145.5,181.43z"
        fill="#fff"
      />
    </g>
    <g id="change2_13">
      <path
        d="M121.56,139.53c-0.22,0-0.44,0-0.67,0c-0.78,0-1.54,0.69-1.5,1.5c0.04,0.81,0.66,1.5,1.5,1.5 c0.22,0,0.44,0,0.67,0c0.78,0,1.54-0.69,1.5-1.5C123.02,140.22,122.4,139.53,121.56,139.53L121.56,139.53z"
        fill="#fff"
      />
    </g>
    <g id="change2_14">
      <path
        d="M107.59,158.82c-0.22,0-0.44,0-0.67,0c-0.78,0-1.54,0.69-1.5,1.5c0.04,0.81,0.66,1.5,1.5,1.5 c0.22,0,0.44,0,0.67,0c0.78,0,1.54-0.69,1.5-1.5C109.06,159.51,108.43,158.82,107.59,158.82L107.59,158.82z"
        fill="#fff"
      />
    </g>
    <g id="change2_15">
      <path
        d="M309.11,180.44c1.93,0,1.93-3,0-3C307.18,177.44,307.18,180.44,309.11,180.44L309.11,180.44z"
        fill="#fff"
      />
    </g>
    <g id="change2_16">
      <path
        d="M269.87,151.84c1.93,0,1.93-3,0-3C267.94,148.84,267.94,151.84,269.87,151.84L269.87,151.84z"
        fill="#fff"
      />
    </g>
    <g id="change2_17">
      <path
        d="M298.47,143.86c1.93,0,1.93-3,0-3C296.54,140.86,296.54,143.86,298.47,143.86L298.47,143.86z"
        fill="#fff"
      />
    </g>
    <g id="change2_18">
      <path
        d="M271.2,130.56c1.93,0,1.93-3,0-3C269.27,127.56,269.27,130.56,271.2,130.56L271.2,130.56z"
        fill="#fff"
      />
    </g>
    <g id="change2_19">
      <path
        d="M208.68,103.29c1.93,0,1.93-3,0-3C206.75,100.29,206.75,103.29,208.68,103.29L208.68,103.29z"
        fill="#fff"
      />
    </g>
    <g id="change2_20">
      <path
        d="M198.71,117.26c1.93,0,1.93-3,0-3C196.78,114.26,196.77,117.26,198.71,117.26L198.71,117.26z"
        fill="#fff"
      />
    </g>
    <g id="change2_21">
      <path
        d="M176.1,107.61c-0.22,0-0.44,0-0.67,0c-0.78,0-1.54,0.69-1.5,1.5c0.04,0.81,0.66,1.5,1.5,1.5 c0.22,0,0.44,0,0.67,0c0.78,0,1.54-0.69,1.5-1.5C177.56,108.3,176.94,107.61,176.1,107.61L176.1,107.61z"
        fill="#fff"
      />
    </g>
    <g id="change2_22">
      <path
        d="M190.73,130.56c1.93,0,1.93-3,0-3C188.8,127.56,188.79,130.56,190.73,130.56L190.73,130.56z"
        fill="#fff"
      />
    </g>
    <g id="change2_23">
      <path
        d="M153.48,132.56c1.93,0,1.93-3,0-3C151.55,129.56,151.55,132.56,153.48,132.56L153.48,132.56z"
        fill="#fff"
      />
    </g>
    <g id="change2_24">
      <path
        d="M139.52,155.83c1.93,0,1.93-3,0-3C137.59,152.83,137.58,155.83,139.52,155.83L139.52,155.83z"
        fill="#fff"
      />
    </g>
    <g id="change2_25">
      <path
        d="M243.93,142.86c-0.22,0-0.44,0-0.67,0c-0.78,0-1.54,0.69-1.5,1.5c0.04,0.81,0.66,1.5,1.5,1.5 c0.22,0,0.44,0,0.67,0c0.78,0,1.54-0.69,1.5-1.5C245.4,143.54,244.77,142.86,243.93,142.86L243.93,142.86z"
        fill="#fff"
      />
    </g>
    <g id="change2_26">
      <path
        d="M271.2,181.11c1.93,0,1.93-3,0-3C269.27,178.11,269.27,181.11,271.2,181.11L271.2,181.11z"
        fill="#fff"
      />
    </g>
    <g id="change2_27">
      <path
        d="M161.73,154.6c-0.22,0.22-0.44,0.44-0.67,0.67c-0.57,0.57-0.57,1.55,0,2.12c0.57,0.57,1.55,0.57,2.12,0 c0.22-0.22,0.44-0.44,0.67-0.67c0.57-0.57,0.57-1.55,0-2.12C163.28,154.03,162.31,154.03,161.73,154.6L161.73,154.6z"
        fill="#fff"
      />
    </g>
    <g id="change2_28">
      <path
        d="M289.82,156.82c-0.22,0-0.44,0-0.67,0c-0.78,0-1.54,0.69-1.5,1.5c0.04,0.81,0.66,1.5,1.5,1.5 c0.22,0,0.44,0,0.67,0c0.78,0,1.54-0.69,1.5-1.5C291.29,157.51,290.66,156.82,289.82,156.82L289.82,156.82z"
        fill="#fff"
      />
    </g>
    <g id="change2_29">
      <path
        d="M160.13,173.79c1.93,0,1.93-3,0-3C158.2,170.79,158.2,173.79,160.13,173.79L160.13,173.79z"
        fill="#fff"
      />
    </g>
    <g id="change5_1">
      <path
        d="M228.4,280.49c-0.77-0.03-0.76-1.18,0.01-1.19c19.32-0.33,45.92-0.78,53.69-0.89 c0.75-0.84,1.2-1.94,1.2-3.15c0-2.62-2.13-4.75-4.75-4.75H146.62c-2.62,0-4.75,2.13-4.75,4.75c0,2.62,2.13,4.75,4.75,4.75h9.71 c-0.12,0.21-0.23,0.42-0.32,0.65l48.24,1.96c0.77,0.03,0.76,1.18-0.01,1.19c-15.97,0.24-36.92,0.56-48.1,0.72 c0.77,1.58,2.39,2.66,4.26,2.66h3.83c-0.43,0.71-0.67,1.54-0.67,2.43c0,2.13,1.4,3.92,3.32,4.53l41.61,1.17 c0.69,0.02,0.69,1.05,0,1.06l-35.91,0.97c0.27,2.36,2.28,4.2,4.72,4.2h7.16c-0.11,0.41-0.18,0.84-0.18,1.28 c0,2.62,2.13,4.75,4.75,4.75h3.47c-0.11,0.41-0.18,0.84-0.18,1.28c0,2.62,2.13,4.75,4.75,4.75h31.02c2.17,0,4-1.46,4.56-3.45 l-20.93-1.96c-0.61-0.06-0.57-0.96,0.05-0.96c8.29,0.04,19.34,0.08,25.95,0.05c1.84-0.65,3.16-2.41,3.16-4.47 c0-0.44-0.07-0.87-0.18-1.28h7.16c2.62,0,4.75-2.13,4.75-4.75c0-0.89-0.25-1.72-0.67-2.43h4.91c2.62,0,4.75-2.13,4.75-4.75 c0-0.89-0.25-1.72-0.67-2.43h3.83c2.62,0,4.75-2.13,4.75-4.75c0-0.12-0.02-0.23-0.02-0.35L228.4,280.49z"
        fill="#d774ac"
      />
    </g>
    <g id="change2_30">
      <path
        d="M159.47,170c-0.81-10.9-9.91-19.49-21.01-19.49c-5.57,0-10.64,2.17-14.41,5.7 c-4.11-3.05-9.2-4.86-14.71-4.86c-2.55,0-5,0.41-7.32,1.13c-0.15-0.83-0.36-1.64-0.6-2.43c-9.94,17.63-15.81,37.86-16.33,59.41 h7.03h65.16v-0.08c10.17-0.9,18.15-9.44,18.15-19.85C175.43,179.88,168.57,171.84,159.47,170z"
        fill="#fff"
        opacity=".42"
      />
    </g>
    <g id="change6_2">
      <path
        d="M87.89,239.45c1.02,4.76,2.29,9.42,3.82,13.97h241.78c1.53-4.54,2.81-9.21,3.83-13.97H87.89z"
        fill="#e83f56"
      />
    </g>
    <g id="change7_1">
      <path
        d="M335.61,246.43c0.63-2.3,1.2-4.63,1.7-6.98H87.89c0.5,2.35,1.07,4.68,1.7,6.98H335.61z"
        fill="#ee7478"
      />
    </g>
    <g id="change6_3">
      <path d="M208.33 149.01H216.87V270.5H208.33z" fill="#e83f56" />
    </g>
    <g id="change6_4">
      <path
        d="M229.15,264.39h-33.1c-1.69,0-3.06,1.37-3.06,3.06v0c0,1.69,1.37,3.06,3.06,3.06h33.1 c1.69,0,3.06-1.37,3.06-3.06v0C232.2,265.76,230.84,264.39,229.15,264.39z"
        fill="#e83f56"
      />
    </g>
    <g id="change6_5">
      <path
        d="M208.83,152.75c-0.44,0.7-43.82,69.06-120.99,86.52c0.42,1.96,0.88,3.91,1.38,5.84 c41.01-9.3,72.34-32.46,91.59-50.51c21.44-20.11,32.64-37.92,33.11-38.67L208.83,152.75z"
        fill="#e83f56"
      />
    </g>
    <g id="change6_6">
      <path
        d="M337.69,237.69c-40.42-8.74-71.35-31.53-90.29-49.26c-20.91-19.59-32.14-37.42-32.26-37.59l-5.09,3.17 c0.47,0.75,11.67,18.56,33.11,38.67c19.5,18.29,51.4,41.81,93.21,50.86C336.85,241.61,337.29,239.66,337.69,237.69z"
        fill="#e83f56"
      />
    </g>
    <g id="change6_7">
      <path d="M197.21 172.29H200.21V248.87H197.21z" fill="#e83f56" />
    </g>
    <g id="change6_8">
      <path d="M180.55 186.56H183.55V250.65H180.55z" fill="#e83f56" />
    </g>
    <g id="change6_9">
      <path d="M163.89 201.19H166.89V250.65H163.89z" fill="#e83f56" />
    </g>
    <g id="change6_10">
      <path d="M145.86 216.12H148.86V250.65H145.86z" fill="#e83f56" />
    </g>
    <g id="change6_11">
      <path d="M126.07 227.41H129.07V250.64H126.07z" fill="#e83f56" />
    </g>
    <g fill="#e83f56" id="change6_13">
      <path d="M229.33 173.42L229.33 250" fill="inherit" />
      <path d="M227.83 173.42H230.83V250H227.83z" fill="inherit" />
    </g>
    <g fill="#e83f56" id="change6_15">
      <path d="M245.99 189.2L245.99 253.29" fill="inherit" />
      <path d="M244.49 189.2H247.49V253.29H244.49z" fill="inherit" />
    </g>
    <g fill="#e83f56" id="change6_12">
      <path d="M262.65 202.32L262.65 251.78" fill="inherit" />
      <path d="M261.15 202.32H264.15V251.78H261.15z" fill="inherit" />
    </g>
    <g fill="#e83f56" id="change6_1">
      <path d="M280.68 217.25L280.68 251.78" fill="inherit" />
      <path d="M279.18 217.25H282.18V251.78H279.18z" fill="inherit" />
    </g>
    <g fill="#e83f56" id="change6_14">
      <path d="M300.47 228.54L300.47 251.78" fill="inherit" />
      <path
        d="M298.97 228.54H301.97V251.76999999999998H298.97z"
        fill="inherit"
      />
    </g>
  </g>
</svg>
